<svg width="67" height="53" viewBox="0 0 67 53" fill="none" xmlns="http://www.w3.org/2000/svg">
<path fill-rule="evenodd" clip-rule="evenodd" d="M51.1687 52.217C52.0649 52.8182 53.2199 52.9685 54.2497 52.5993C55.2796 52.2275 56.0366 51.3943 56.2648 50.3844C58.6835 39.6155 64.5506 12.3585 66.7522 2.56262C66.9192 1.8243 66.6409 1.05698 66.0285 0.563891C65.4162 0.0708016 64.5673 -0.0715882 63.8103 0.194733C52.14 4.28711 16.1997 17.0626 1.50964 22.2124C0.577243 22.5393 -0.0295086 23.3884 0.00110733 24.3192C0.0345065 25.2526 0.696924 26.0622 1.65158 26.3337C8.23958 28.2006 16.8872 30.7979 16.8872 30.7979C16.8872 30.7979 20.9285 42.3605 23.0354 48.2406C23.2998 48.9789 23.9094 49.559 24.7137 49.7594C25.5153 49.9572 26.3726 49.7489 26.971 49.2136C30.3554 46.1865 35.5879 41.5061 35.5879 41.5061C35.5879 41.5061 45.5298 48.412 51.1687 52.217ZM20.5249 29.3371L25.198 43.9399L26.2362 34.6925C26.2362 34.6925 44.2912 19.2644 54.5837 10.4705C54.8843 10.2121 54.9261 9.77965 54.6756 9.47642C54.4279 9.17318 53.9714 9.10198 53.6291 9.30766C41.7 16.5247 20.5249 29.3371 20.5249 29.3371Z" fill="white"/>
</svg>
